<svg viewBox="0 0 54.908 54.908" xmlns="http://www.w3.org/2000/svg" xmlns:xlink="http://www.w3.org/1999/xlink" id="Capa_1" overflow="hidden"><style>
.MsftOfcThm_Background1_Fill {
 fill:#FFFFFF; 
}
</style>
<g><path d="M54.615 19.123C47.372 11.879 37.725 7.89 27.454 7.89 17.183 7.89 7.537 11.878 0.293 19.123-0.098 19.514-0.098 20.146 0.293 20.537 0.684 20.928 1.316 20.928 1.707 20.537 8.573 13.67 17.717 9.889 27.454 9.889 37.191 9.889 46.335 13.67 53.201 20.536 53.396 20.731 53.652 20.829 53.908 20.829 54.164 20.829 54.42 20.731 54.615 20.536 55.006 20.146 55.006 19.513 54.615 19.123Z" fill="#FFFFFF"/><path d="M6.171 25C5.78 25.391 5.78 26.023 6.171 26.414 6.366 26.609 6.622 26.707 6.878 26.707 7.134 26.707 7.39 26.609 7.585 26.414 18.54 15.458 36.366 15.458 47.322 26.414 47.713 26.805 48.345 26.805 48.736 26.414 49.127 26.023 49.127 25.391 48.736 25 37.002 13.266 17.907 13.264 6.171 25Z" fill="#FFFFFF"/><path d="M27.454 24.508C21.629 24.508 16.159 26.771 12.05 30.879 11.659 31.27 11.659 31.902 12.05 32.293 12.441 32.684 13.073 32.684 13.464 32.293 17.195 28.563 22.163 26.508 27.454 26.508 32.745 26.508 37.713 28.563 41.444 32.293 41.639 32.488 41.895 32.586 42.151 32.586 42.407 32.586 42.663 32.488 42.858 32.293 43.249 31.902 43.249 31.27 42.858 30.879 38.75 26.771 33.279 24.508 27.454 24.508Z" fill="#FFFFFF"/><path d="M27.454 33.916C23.842 33.916 20.903 36.855 20.903 40.468 20.903 44.081 23.842 47.02 27.454 47.02 31.067 47.02 34.006 44.081 34.006 40.468 34.006 36.855 31.067 33.916 27.454 33.916ZM27.454 45.019C24.944 45.019 22.903 42.977 22.903 40.467 22.903 37.957 24.945 35.915 27.454 35.915 29.963 35.915 32.006 37.957 32.006 40.467 32.006 42.977 29.964 45.019 27.454 45.019Z" fill="#FFFFFF"/></g><g></g><g></g><g></g><g></g><g></g><g></g><g></g><g></g><g></g><g></g><g></g><g></g><g></g><g></g><g></g></svg>