<svg viewBox="0 0 58 58" xmlns="http://www.w3.org/2000/svg" xmlns:xlink="http://www.w3.org/1999/xlink" id="Capa_1" overflow="hidden"><style>
.MsftOfcThm_Background1_Fill {
 fill:#FFFFFF; 
}
</style>
<g><path d="M54.319 37.839C54.762 35.918 55 33.96 55 32 55 22.905 50.369 14.623 42.611 9.847 42.138 9.557 41.524 9.704 41.235 10.174 40.945 10.645 41.092 11.26 41.562 11.55 48.724 15.96 53 23.604 53 32 53 33.726 52.8 35.451 52.427 37.147 51.966 37.051 51.489 37 51 37 47.14 37 44 40.141 44 44 44 47.859 47.14 51 51 51 54.86 51 58 47.859 58 44 58 41.341 56.509 39.024 54.319 37.839ZM51 49C48.243 49 46 46.757 46 44 46 41.243 48.243 39 51 39 53.757 39 56 41.243 56 44 56 46.757 53.757 49 51 49Z" class="MsftOfcThm_Background1_Fill" fill="#FFFFFF"/><path d="M38.171 54.182C35.256 55.388 32.171 56 29 56 22.615 56 16.473 53.425 11.983 48.908 13.229 47.643 14 45.911 14 44 14 40.141 10.86 37 7 37 3.14 37 0 40.141 0 44 0 47.859 3.14 51 7 51 8.226 51 9.378 50.681 10.381 50.125 15.26 55.136 21.994 58 29 58 32.435 58 35.778 57.337 38.936 56.029 39.446 55.818 39.689 55.233 39.478 54.722 39.267 54.213 38.681 53.971 38.171 54.182ZM2 44C2 41.243 4.243 39 7 39 9.757 39 12 41.243 12 44 12 46.757 9.757 49 7 49 4.243 49 2 46.757 2 44Z" class="MsftOfcThm_Background1_Fill" fill="#FFFFFF"/><path d="M4 31.213C4.024 31.215 4.048 31.216 4.071 31.216 4.592 31.216 5.03 30.814 5.068 30.286 5.78 20.197 12.654 11.766 22.288 8.972 23.142 11.874 25.825 14 29 14 32.86 14 36 10.859 36 7 36 3.141 32.86 0 29 0 25.149 0 22.015 3.127 22.001 6.975 11.42 9.922 3.851 19.12 3.073 30.146 3.034 30.696 3.449 31.175 4 31.213ZM29 2C31.757 2 34 4.243 34 7 34 9.757 31.757 12 29 12 26.243 12 24 9.757 24 7 24 4.243 26.243 2 29 2Z" class="MsftOfcThm_Background1_Fill" fill="#FFFFFF"/></g><g></g><g></g><g></g><g></g><g></g><g></g><g></g><g></g><g></g><g></g><g></g><g></g><g></g><g></g><g></g></svg>