<svg viewBox="0 0 51.997 51.997" xmlns="http://www.w3.org/2000/svg" xmlns:xlink="http://www.w3.org/1999/xlink" id="Capa_1" overflow="hidden"><style>
.MsftOfcThm_Background1_Fill {
 fill:#FFFFFF; 
}
</style>
<g><path d="M51.911 16.242C51.152 7.888 45.239 1.827 37.839 1.827 32.909 1.827 28.395 4.48 25.855 8.732 23.338 4.425 19.009 1.826 14.158 1.826 6.759 1.826 0.845 7.887 0.087 16.241 0.027 16.61-0.219 18.552 0.529 21.719 1.607 26.287 4.097 30.442 7.728 33.732L25.843 50.171 44.269 33.733C47.9 30.442 50.39 26.288 51.468 21.719 52.216 18.553 51.97 16.611 51.911 16.242ZM49.521 21.261C48.537 25.433 46.256 29.234 42.931 32.246L25.855 47.481 9.072 32.25C5.741 29.232 3.461 25.432 2.476 21.26 1.768 18.263 2.059 16.57 2.06 16.559L2.075 16.458C2.725 9.139 7.806 3.826 14.158 3.826 18.845 3.826 22.971 6.706 24.929 11.341L25.85 13.524 26.771 11.341C28.698 6.777 33.042 3.827 37.84 3.827 44.191 3.827 49.273 9.14 49.936 16.554 49.938 16.57 50.229 18.264 49.521 21.261Z" fill="#FFFFFF"/><path d="M15.999 7.904C10.485 7.904 5.999 12.39 5.999 17.904 5.999 18.457 6.446 18.904 6.999 18.904 7.552 18.904 7.999 18.457 7.999 17.904 7.999 13.493 11.588 9.904 15.999 9.904 16.552 9.904 16.999 9.457 16.999 8.904 16.999 8.351 16.551 7.904 15.999 7.904Z" fill="#FFFFFF"/></g><g></g><g></g><g></g><g></g><g></g><g></g><g></g><g></g><g></g><g></g><g></g><g></g><g></g><g></g><g></g></svg>